<svg width="65" height="79" viewBox="0 0 65 79" fill="none" xmlns="http://www.w3.org/2000/svg">
<path d="M12.224 46.08H2.304C1.49333 46.08 0.896 45.9093 0.512 45.568C0.170667 45.184 0 44.5867 0 43.776V2.304C0 1.49333 0.170667 0.917334 0.512 0.576C0.896 0.192 1.49333 0 2.304 0H35.848C36.6587 0 37.2347 0.192 37.576 0.576C37.96 0.917334 38.152 1.49333 38.152 2.304V9.92C38.152 10.7307 37.96 11.328 37.576 11.712C37.2347 12.0533 36.6587 12.224 35.848 12.224H14.528V18.88H30.664C31.4747 18.88 32.0507 19.072 32.392 19.456C32.776 19.7973 32.968 20.3733 32.968 21.184V28.864C32.968 29.6747 32.776 30.272 32.392 30.656C32.0507 30.9973 31.4747 31.168 30.664 31.168H14.528V43.776C14.528 44.5867 14.336 45.184 13.952 45.568C13.6107 45.9093 13.0347 46.08 12.224 46.08Z" fill="#FF008A"/>
<path d="M30.464 78.16H20.928C20.1173 78.16 19.52 77.9893 19.136 77.648C18.7947 77.264 18.624 76.6667 18.624 75.856V37.384C18.624 36.5734 18.7947 35.9974 19.136 35.656C19.52 35.272 20.1173 35.08 20.928 35.08H31.232C31.9147 35.08 32.4693 35.2294 32.896 35.528C33.3653 35.8267 33.792 36.3173 34.176 37L39.936 47.432C40.1493 47.816 40.32 48.0934 40.448 48.264C40.6187 48.4347 40.832 48.52 41.088 48.52H41.664C41.92 48.52 42.112 48.4347 42.24 48.264C42.4107 48.0934 42.6027 47.816 42.816 47.432L48.512 37C48.896 36.3173 49.3013 35.8267 49.728 35.528C50.1973 35.2294 50.7733 35.08 51.456 35.08H61.824C62.6347 35.08 63.2107 35.272 63.552 35.656C63.936 35.9974 64.128 36.5734 64.128 37.384V75.856C64.128 76.6667 63.936 77.264 63.552 77.648C63.2107 77.9893 62.6347 78.16 61.824 78.16H51.968C51.1573 78.16 50.56 77.9893 50.176 77.648C49.8347 77.264 49.664 76.6667 49.664 75.856V56.328L45.888 63.304C45.504 64.0294 45.0347 64.5627 44.48 64.904C43.968 65.2027 43.3067 65.352 42.496 65.352H39.936C39.1253 65.352 38.4427 65.2027 37.888 64.904C37.376 64.5627 36.928 64.0294 36.544 63.304L32.768 56.328V75.856C32.768 76.6667 32.576 77.264 32.192 77.648C31.8507 77.9893 31.2747 78.16 30.464 78.16Z" fill="#0B8AFF"/>
</svg>
